<?xml version="1.0" standalone="no"?>
<!DOCTYPE svg PUBLIC "-//W3C//DTD SVG 20010904//EN"
 "http://www.w3.org/TR/2001/REC-SVG-20010904/DTD/svg10.dtd">
<svg version="1.0" xmlns="http://www.w3.org/2000/svg"
 width="512.000000pt" height="512.000000pt" viewBox="0 0 512.000000 512.000000"
 preserveAspectRatio="xMidYMid meet">
<metadata>
Created by potrace 1.14, written by Peter Selinger 2001-2017
</metadata>
<g transform="translate(0.000000,512.000000) scale(0.100000,-0.100000)"
fill="#000000" stroke="none">
<path d="M1011 5104 c-188 -50 -293 -177 -286 -344 3 -89 -1 -72 70 -290 83
-255 128 -398 174 -550 23 -74 46 -145 51 -157 5 -13 7 -23 4 -23 -6 0 -91 86
-152 153 -38 42 -43 41 -120 -16 -333 -244 -581 -587 -686 -950 -41 -143 -58
-261 -59 -417 -1 -128 8 -284 18 -299 2 -4 6 -24 9 -46 26 -159 112 -380 216
-550 145 -237 392 -481 643 -634 210 -128 453 -228 677 -277 19 -4 40 -9 45
-11 99 -28 362 -57 520 -57 88 0 295 13 305 19 3 1 32 6 65 9 108 12 223 42
252 67 48 41 84 73 117 104 18 17 70 64 116 105 46 41 95 86 109 100 14 14 64
59 110 100 47 41 97 86 111 100 14 14 57 52 94 85 37 33 82 74 100 90 44 42
196 179 226 205 14 12 48 43 75 68 28 26 111 101 185 167 216 192 209 184 225
245 18 70 23 101 31 175 3 33 8 63 11 67 6 11 5 265 -2 323 -45 373 -221 723
-509 1010 -119 119 -289 252 -314 247 -9 -2 -32 -22 -51 -45 -96 -110 -130
-145 -134 -134 -2 7 15 71 39 142 42 128 148 460 219 685 42 134 50 208 29
286 -33 126 -132 212 -289 249 -90 22 -2164 21 -2244 -1z m1973 -419 c11 -11
12 -22 6 -43 -36 -114 -81 -271 -85 -293 -8 -42 -35 -113 -46 -120 -6 -3 -52
4 -102 17 -96 24 -107 26 -197 43 -138 25 -251 35 -410 35 -119 0 -276 -9
-330 -18 -14 -3 -41 -7 -60 -10 -75 -11 -191 -35 -241 -50 -60 -18 -105 -21
-114 -6 -5 8 -28 87 -40 140 -2 8 -22 78 -45 154 -39 132 -41 141 -24 153 14
10 182 13 845 13 723 0 829 -2 843 -15z m387 -1516 c65 -15 110 -62 116 -123
7 -55 -13 -89 -91 -154 -28 -23 -67 -56 -86 -73 -19 -17 -62 -54 -94 -82 -33
-29 -64 -57 -70 -62 -6 -6 -38 -33 -71 -60 -33 -28 -62 -52 -65 -55 -3 -3 -36
-32 -75 -65 -38 -33 -72 -62 -75 -65 -3 -3 -50 -43 -105 -90 -55 -46 -105 -89
-111 -95 -6 -5 -24 -21 -40 -35 -16 -14 -130 -113 -253 -220 -288 -250 -280
-244 -319 -264 -43 -22 -109 -24 -152 -3 -32 15 -827 692 -928 789 -23 23 -46
55 -51 72 -19 74 39 155 126 174 73 16 122 -9 279 -143 76 -66 141 -122 144
-126 3 -3 39 -34 80 -69 41 -35 85 -73 97 -84 12 -12 28 -26 35 -31 7 -6 60
-51 118 -100 130 -112 159 -135 175 -135 10 0 97 70 200 161 17 15 147 127
290 250 143 123 265 228 271 234 6 5 37 33 70 60 32 28 111 95 174 150 64 55
143 123 175 150 121 104 148 115 236 94z"/>
<path d="M4973 2373 c-39 -22 -103 -81 -103 -95 0 -6 13 -27 30 -48 53 -67
115 -58 194 30 32 36 33 61 4 95 -30 34 -83 42 -125 18z"/>
<path d="M4558 2219 c-15 -6 -30 -20 -34 -31 -7 -24 6 -37 178 -186 59 -51
110 -97 113 -103 10 -15 51 -10 76 9 19 16 22 28 22 88 1 146 -100 235 -262
233 -36 0 -78 -5 -93 -10z"/>
<path d="M4359 2103 c-29 -25 -59 -51 -159 -143 -15 -14 -58 -52 -95 -85 -38
-33 -73 -64 -79 -70 -6 -5 -58 -53 -116 -105 -58 -52 -132 -119 -165 -150 -84
-76 -244 -222 -265 -240 -47 -41 -121 -108 -176 -159 -33 -31 -79 -72 -101
-92 -23 -20 -86 -76 -140 -126 -111 -103 -123 -113 -223 -203 -113 -101 -150
-140 -150 -160 0 -16 26 -42 180 -180 55 -49 85 -62 115 -50 14 5 160 116 323
246 163 130 312 248 331 263 19 14 39 31 45 36 6 6 51 42 99 80 49 39 127 101
174 138 47 38 118 94 157 125 97 76 329 261 432 345 45 37 85 67 87 67 12 0
27 -67 21 -97 -9 -49 -35 -73 -314 -289 -91 -71 -170 -135 -177 -144 -18 -22
-16 -44 5 -63 40 -37 68 -24 252 119 230 178 258 201 302 247 66 70 81 167 39
262 l-19 44 29 37 c16 20 29 41 29 47 0 12 -68 79 -160 158 -36 31 -94 82
-130 113 -75 65 -102 70 -151 29z"/>
<path d="M2602 483 c-29 -26 -313 -455 -309 -467 8 -25 49 -13 182 52 77 37
195 95 262 127 127 61 153 85 118 111 -10 7 -38 33 -64 57 -47 44 -159 137
-165 137 -2 0 -13 -8 -24 -17z"/>
</g>
</svg>
