<?xml version="1.0" standalone="no"?>
<!DOCTYPE svg PUBLIC "-//W3C//DTD SVG 20010904//EN"
 "http://www.w3.org/TR/2001/REC-SVG-20010904/DTD/svg10.dtd">
<svg version="1.0" xmlns="http://www.w3.org/2000/svg"
 width="252.000000pt" height="252.000000pt" viewBox="0 0 252.000000 252.000000"
 preserveAspectRatio="xMidYMid meet">
<metadata>
Created by potrace 1.14, written by Peter Selinger 2001-2017
</metadata>
<g transform="translate(0.000000,252.000000) scale(0.100000,-0.100000)"
fill="#000000" stroke="none">
<path d="M591 2502 c-50 -17 -98 -70 -107 -119 -9 -47 3 -104 69 -340 30 -106
52 -193 50 -193 -7 0 -28 23 -47 53 -10 15 -23 27 -28 27 -15 0 -116 -100
-163 -161 -320 -414 -218 -1017 219 -1302 159 -104 312 -149 501 -149 144 1
239 22 275 61 14 16 91 98 172 182 80 85 174 183 208 219 34 36 97 101 139
145 77 79 79 82 90 151 50 296 -48 587 -268 798 -33 31 -64 56 -70 56 -6 0
-17 -12 -25 -28 -8 -15 -23 -35 -34 -46 -24 -21 -30 -48 50 239 70 253 73 294
21 355 -55 65 -41 64 -550 65 -361 0 -470 -2 -502 -13z m845 -206 c4 -11 -41
-204 -50 -213 -3 -3 -34 2 -69 11 -152 38 -313 41 -444 7 -45 -12 -86 -21 -91
-21 -11 0 -65 207 -57 220 9 14 706 10 711 -4z m194 -756 c24 -24 26 -57 6
-86 -21 -29 -576 -583 -602 -601 -13 -8 -32 -11 -46 -8 -14 4 -114 96 -227
209 -171 172 -201 206 -201 232 1 41 24 67 62 70 29 2 48 -13 205 -169 l173
-171 26 25 c15 13 140 135 278 272 268 264 280 273 326 227z"/>
<path d="M2258 1149 l-31 -30 23 -25 c29 -30 31 -30 64 2 31 32 33 59 7 74
-27 14 -29 14 -63 -21z"/>
<path d="M2095 1091 c-14 -14 2 -41 58 -97 34 -35 68 -64 75 -64 17 0 32 42
26 71 -15 68 -57 101 -120 97 -19 -1 -37 -4 -39 -7z"/>
<path d="M1951 968 c-43 -46 -103 -108 -133 -140 -48 -51 -255 -268 -416 -437
-106 -110 -104 -103 -41 -167 30 -31 61 -53 71 -52 13 3 169 140 356 316 22
20 81 75 132 122 51 47 120 111 154 142 49 46 62 54 67 40 13 -37 2 -50 -160
-199 -38 -35 -52 -55 -48 -67 12 -29 38 -17 120 57 110 98 114 102 131 136 18
34 20 69 7 104 -7 18 -5 30 6 46 14 21 11 25 -63 101 -43 44 -83 80 -90 80 -7
0 -49 -37 -93 -82z"/>
<path d="M1262 223 c-46 -68 -113 -196 -108 -208 4 -10 35 3 118 50 62 35 114
68 116 73 3 9 -89 112 -101 112 -3 0 -14 -12 -25 -27z"/>
</g>
</svg>
